<mxfile host="app.diagrams.net" modified="2022-11-13T21:54:19.284Z" agent="5.0 (Windows NT 10.0; Win64; x64) AppleWebKit/537.36 (KHTML, like Gecko) Chrome/107.0.0.0 Safari/537.36" etag="54X00oZSii7vGWI3sNhp" version="20.5.3" type="github">
  <diagram id="tUtnEJGrudBuOTn9ZmEZ" name="PÃ¡gina-1">
    <mxGraphModel dx="868" dy="482" grid="1" gridSize="10" guides="1" tooltips="1" connect="1" arrows="1" fold="1" page="1" pageScale="1" pageWidth="827" pageHeight="1169" math="0" shadow="0">
      <root>
        <mxCell id="0" />
        <mxCell id="1" parent="0" />
        <mxCell id="mS-E4WLF95TZ4vqTJO7K-1" value="&lt;font style=&quot;font-size: 20px;&quot;&gt;&lt;b style=&quot;&quot;&gt;Model&lt;/b&gt;&lt;/font&gt;" style="rounded=1;whiteSpace=wrap;html=1;absoluteArcSize=1;arcSize=14;strokeWidth=2;fillColor=#dae8fc;strokeColor=#6c8ebf;" vertex="1" parent="1">
          <mxGeometry x="364" y="212" width="100" height="100" as="geometry" />
        </mxCell>
        <mxCell id="mS-E4WLF95TZ4vqTJO7K-3" value="" style="verticalLabelPosition=bottom;verticalAlign=top;html=1;strokeWidth=2;shape=mxgraph.arrows2.arrow;dy=0.6;dx=40;notch=0;fontSize=20;fontColor=#000000;" vertex="1" parent="1">
          <mxGeometry x="264" y="227" width="100" height="70" as="geometry" />
        </mxCell>
        <mxCell id="mS-E4WLF95TZ4vqTJO7K-4" value="Training data" style="shape=parallelogram;html=1;strokeWidth=2;perimeter=parallelogramPerimeter;whiteSpace=wrap;rounded=1;arcSize=12;size=0.23;fontSize=20;fontColor=#000000;" vertex="1" parent="1">
          <mxGeometry x="154" y="222" width="110" height="75" as="geometry" />
        </mxCell>
        <mxCell id="mS-E4WLF95TZ4vqTJO7K-5" value="" style="verticalLabelPosition=bottom;verticalAlign=top;html=1;strokeWidth=2;shape=mxgraph.arrows2.arrow;dy=0.6;dx=40;notch=0;fontSize=20;fontColor=#000000;" vertex="1" parent="1">
          <mxGeometry x="480" y="227" width="100" height="70" as="geometry" />
        </mxCell>
        <mxCell id="mS-E4WLF95TZ4vqTJO7K-6" value="Prediction" style="shape=parallelogram;html=1;strokeWidth=2;perimeter=parallelogramPerimeter;whiteSpace=wrap;rounded=1;arcSize=12;size=0.23;fontSize=20;fontColor=#000000;" vertex="1" parent="1">
          <mxGeometry x="580" y="222" width="140" height="70" as="geometry" />
        </mxCell>
        <mxCell id="mS-E4WLF95TZ4vqTJO7K-7" value="Loss function" style="rounded=1;whiteSpace=wrap;html=1;absoluteArcSize=1;arcSize=14;strokeWidth=2;fontSize=20;fontColor=#000000;" vertex="1" parent="1">
          <mxGeometry x="364" y="9" width="100" height="50" as="geometry" />
        </mxCell>
        <mxCell id="mS-E4WLF95TZ4vqTJO7K-8" value="Optimization method" style="rounded=1;whiteSpace=wrap;html=1;absoluteArcSize=1;arcSize=14;strokeWidth=2;fontSize=20;fontColor=#000000;" vertex="1" parent="1">
          <mxGeometry x="351" y="110" width="126" height="50" as="geometry" />
        </mxCell>
        <mxCell id="mS-E4WLF95TZ4vqTJO7K-10" value="" style="html=1;shadow=0;dashed=0;align=center;verticalAlign=middle;shape=mxgraph.arrows2.bendArrow;dy=15;dx=38;notch=0;arrowHead=55;rounded=1;fontSize=20;fontColor=#000000;" vertex="1" parent="1">
          <mxGeometry x="210" y="10" width="140" height="200" as="geometry" />
        </mxCell>
        <mxCell id="mS-E4WLF95TZ4vqTJO7K-12" value="" style="html=1;shadow=0;dashed=0;align=center;verticalAlign=middle;shape=mxgraph.arrows2.arrow;dy=0.6;dx=27;direction=south;notch=0;fontSize=20;fontColor=#000000;" vertex="1" parent="1">
          <mxGeometry x="390" y="160" width="40" height="51" as="geometry" />
        </mxCell>
        <mxCell id="mS-E4WLF95TZ4vqTJO7K-14" value="" style="html=1;shadow=0;dashed=0;align=center;verticalAlign=middle;shape=mxgraph.arrows2.bendArrow;dy=15;dx=38;notch=0;arrowHead=55;rounded=1;fontSize=20;fontColor=#000000;rotation=-180;" vertex="1" parent="1">
          <mxGeometry x="610" y="110" width="100" height="100" as="geometry" />
        </mxCell>
        <mxCell id="mS-E4WLF95TZ4vqTJO7K-19" value="" style="html=1;shadow=0;dashed=0;align=center;verticalAlign=middle;shape=mxgraph.arrows2.arrow;dy=0.6;dx=27;direction=south;notch=0;fontSize=20;fontColor=#000000;" vertex="1" parent="1">
          <mxGeometry x="390" y="60" width="40" height="51" as="geometry" />
        </mxCell>
      </root>
    </mxGraphModel>
  </diagram>
</mxfile>
